<svg xmlns="http://www.w3.org/2000/svg" xmlns:xlink="http://www.w3.org/1999/xlink" width="100" height="100" viewBox="0 0 100 100"><rect width="100%" height="100%" fill="#ff8400"></rect><g transform="translate(50 50) scale(0.69 0.69) rotate(0) translate(-50 -50)" style="fill:#0059b3"><svg fill="#0059b3" xmlns:x="http://ns.adobe.com/Extensibility/1.0/" xmlns:i="http://ns.adobe.com/AdobeIllustrator/10.0/" xmlns:graph="http://ns.adobe.com/Graphs/1.0/" xmlns="http://www.w3.org/2000/svg" xmlns:xlink="http://www.w3.org/1999/xlink" version="1.1" x="0px" y="0px" viewBox="0 0 100 100" style="enable-background:new 0 0 100 100;" xml:space="preserve"><g><g i:extraneous="self"><g><path d="M5273.1,2400.1v-2c0-2.8-5-4-9.7-4s-9.7,1.3-9.7,4v2c0,1.8,0.7,3.6,2,4.9l5,4.9c0.3,0.3,0.4,0.6,0.4,1v6.4     c0,0.4,0.2,0.7,0.6,0.8l2.9,0.9c0.5,0.1,1-0.2,1-0.8v-7.2c0-0.4,0.2-0.7,0.4-1l5.1-5C5272.4,2403.7,5273.1,2401.9,5273.1,2400.1z      M5263.4,2400c-4.8,0-7.4-1.3-7.5-1.8v0c0.1-0.5,2.7-1.8,7.5-1.8c4.8,0,7.3,1.3,7.5,1.8C5270.7,2398.7,5268.2,2400,5263.4,2400z"></path><path d="M5268.4,2410.3c-0.6,0-1,0.4-1,1c0,0.6,0.4,1,1,1h4.3c0.6,0,1-0.4,1-1c0-0.6-0.4-1-1-1H5268.4z"></path><path d="M5272.7,2413.7h-4.3c-0.6,0-1,0.4-1,1c0,0.6,0.4,1,1,1h4.3c0.6,0,1-0.4,1-1C5273.7,2414.1,5273.3,2413.7,5272.7,2413.7z"></path><path d="M5272.7,2417h-4.3c-0.6,0-1,0.4-1,1c0,0.6,0.4,1,1,1h4.3c0.6,0,1-0.4,1-1C5273.7,2417.5,5273.3,2417,5272.7,2417z"></path></g><g><path d="M44.2,12.4h2.6V23c0,0.5,0.4,1,1,1h4.4c0.5,0,1-0.4,1-1V12.4h2.6c0.4,0,0.9-0.3,1.1-0.7c0.2-0.4,0.2-0.9-0.1-1.2L50.9,3     c-0.2-0.3-0.6-0.5-0.9-0.5c-0.4,0-0.7,0.2-0.9,0.5l-5.8,7.5C43.1,10.7,43,11,43,11.2c0,0.2,0,0.4,0.1,0.5     C43.4,12.1,43.8,12.4,44.2,12.4z"></path><path d="M24,52.2v-4.4c0-0.5-0.4-1-1-1H12.4v-2.6c0-0.5-0.3-0.9-0.7-1.1c-0.4-0.2-0.9-0.2-1.2,0.1L3,49.1     c-0.3,0.2-0.5,0.6-0.5,0.9c0,0.4,0.2,0.7,0.5,0.9l7.5,5.8c0.2,0.2,0.5,0.2,0.7,0.2c0.2,0,0.4,0,0.5-0.1c0.4-0.2,0.7-0.6,0.7-1.1     v-2.6H23C23.5,53.2,24,52.7,24,52.2z"></path><path d="M55.8,87.6h-2.6V77c0-0.5-0.4-1-1-1h-4.4c-0.5,0-1,0.4-1,1v10.6h-2.6c-0.5,0-0.9,0.3-1.1,0.7c-0.2,0.4-0.2,0.9,0.1,1.2     l5.8,7.5c0.2,0.3,0.6,0.5,0.9,0.5c0.4,0,0.7-0.2,0.9-0.5l5.8-7.5c0.2-0.2,0.2-0.5,0.2-0.7c0-0.2,0-0.4-0.1-0.5     C56.6,87.9,56.2,87.6,55.8,87.6z"></path><path d="M97,49.1l-7.5-5.8C89.3,43.1,89,43,88.8,43c-0.2,0-0.4,0-0.5,0.1c-0.4,0.2-0.7,0.6-0.7,1.1v2.6H77c-0.5,0-1,0.4-1,1v4.4     c0,0.5,0.4,1,1,1h10.6v2.6c0,0.5,0.3,0.9,0.7,1.1c0.4,0.2,0.9,0.2,1.2-0.1l7.5-5.8c0.3-0.2,0.5-0.6,0.5-0.9     C97.5,49.6,97.3,49.3,97,49.1z"></path><path d="M70,33.1c0.4,0.4,1,0.4,1.4,0l7.5-7.5l1.8,1.8c0.3,0.3,0.8,0.4,1.2,0.3c0.4-0.1,0.7-0.5,0.8-1l1.2-9.4     c0-0.4-0.1-0.7-0.3-1c-0.3-0.3-0.6-0.4-1-0.3l-9.4,1.2c-0.3,0-0.5,0.2-0.7,0.3c-0.1,0.1-0.2,0.3-0.3,0.5c-0.1,0.4,0,0.9,0.3,1.2     l1.8,1.8l-7.5,7.5c-0.4,0.4-0.4,1,0,1.4L70,33.1z"></path><path d="M17.7,27.5c0.1,0.1,0.3,0.2,0.5,0.3c0.4,0.1,0.9,0,1.2-0.3l1.8-1.8l7.5,7.5c0.4,0.4,1,0.4,1.4,0l3.1-3.1     c0.4-0.4,0.4-1,0-1.4l-7.5-7.5l1.8-1.8c0.3-0.3,0.4-0.8,0.3-1.2c-0.1-0.4-0.5-0.7-1-0.8l-9.4-1.2c-0.4,0-0.7,0.1-1,0.3     c-0.3,0.3-0.4,0.6-0.3,1l1.2,9.4C17.4,27.1,17.5,27.3,17.7,27.5z"></path><path d="M30,66.9c-0.4-0.4-1-0.4-1.4,0l-7.5,7.5l-1.8-1.8c-0.3-0.3-0.8-0.4-1.2-0.3c-0.4,0.1-0.7,0.5-0.8,1l-1.2,9.4     c0,0.4,0.1,0.7,0.3,1c0.3,0.3,0.6,0.4,1,0.3l9.4-1.2c0.3,0,0.5-0.2,0.7-0.3c0.1-0.1,0.2-0.3,0.3-0.5c0.1-0.4,0-0.9-0.3-1.2     l-1.8-1.8l7.5-7.5c0.4-0.4,0.4-1,0-1.4L30,66.9z"></path><path d="M82.3,72.5c-0.1-0.1-0.3-0.2-0.5-0.3c-0.4-0.1-0.9,0-1.2,0.3l-1.8,1.8l-7.5-7.5c-0.4-0.4-1-0.4-1.4,0L66.9,70     c-0.4,0.4-0.4,1,0,1.4l7.5,7.5l-1.8,1.8c-0.3,0.3-0.4,0.8-0.3,1.2c0.1,0.4,0.5,0.7,1,0.8l9.4,1.2c0.4,0,0.7-0.1,1-0.3     c0.3-0.3,0.4-0.6,0.3-1l-1.2-9.4C82.6,72.9,82.5,72.7,82.3,72.5z"></path><path d="M50,30c-11,0-20,9-20,20c0,11,9,20,20,20c11,0,20-9,20-20C70,39,61,30,50,30z M58.8,47.4l-9,9c-0.5,0.5-1.2,0.8-1.9,0.8     c-0.7,0-1.4-0.3-1.9-0.8l-4.7-4.7c-1.1-1.1-1.1-2.8,0-3.8c1.1-1.1,2.8-1.1,3.8,0l2.8,2.8l7.1-7.1c1.1-1.1,2.8-1.1,3.8,0     C59.8,44.6,59.8,46.3,58.8,47.4z"></path></g></g></g></svg></g></svg>